<svg xmlns="http://www.w3.org/2000/svg" xmlns:xlink="http://www.w3.org/1999/xlink" width="600" height="400" viewBox="0 0 2400 1600">
<defs>
  <clipPath id="clip600">
    <rect x="0" y="0" width="2400" height="1600"></rect>
  </clipPath>
</defs>
<path clip-path="url(#clip600)" d="M0 1600 L2400 1600 L2400 0 L0 0  Z" fill="#ffffff" fill-rule="evenodd" fill-opacity="1"></path>
<defs>
  <clipPath id="clip601">
    <rect x="480" y="0" width="1681" height="1600"></rect>
  </clipPath>
</defs>
<path clip-path="url(#clip600)" d="M219.866 1423.18 L2352.76 1423.18 L2352.76 123.472 L219.866 123.472  Z" fill="#ffffff" fill-rule="evenodd" fill-opacity="1"></path>
<defs>
  <clipPath id="clip602">
    <rect x="219" y="123" width="2134" height="1301"></rect>
  </clipPath>
</defs>
<polyline clip-path="url(#clip602)" style="stroke:#000000; stroke-linecap:round; stroke-linejoin:round; stroke-width:2; stroke-opacity:0.1; fill:none" points="290.963,1423.18 290.963,123.472 "></polyline>
<polyline clip-path="url(#clip602)" style="stroke:#000000; stroke-linecap:round; stroke-linejoin:round; stroke-width:2; stroke-opacity:0.1; fill:none" points="362.059,1423.18 362.059,123.472 "></polyline>
<polyline clip-path="url(#clip602)" style="stroke:#000000; stroke-linecap:round; stroke-linejoin:round; stroke-width:2; stroke-opacity:0.1; fill:none" points="433.155,1423.18 433.155,123.472 "></polyline>
<polyline clip-path="url(#clip602)" style="stroke:#000000; stroke-linecap:round; stroke-linejoin:round; stroke-width:2; stroke-opacity:0.1; fill:none" points="504.252,1423.18 504.252,123.472 "></polyline>
<polyline clip-path="url(#clip602)" style="stroke:#000000; stroke-linecap:round; stroke-linejoin:round; stroke-width:2; stroke-opacity:0.1; fill:none" points="575.348,1423.18 575.348,123.472 "></polyline>
<polyline clip-path="url(#clip602)" style="stroke:#000000; stroke-linecap:round; stroke-linejoin:round; stroke-width:2; stroke-opacity:0.1; fill:none" points="646.444,1423.18 646.444,123.472 "></polyline>
<polyline clip-path="url(#clip602)" style="stroke:#000000; stroke-linecap:round; stroke-linejoin:round; stroke-width:2; stroke-opacity:0.1; fill:none" points="717.541,1423.18 717.541,123.472 "></polyline>
<polyline clip-path="url(#clip602)" style="stroke:#000000; stroke-linecap:round; stroke-linejoin:round; stroke-width:2; stroke-opacity:0.1; fill:none" points="788.637,1423.18 788.637,123.472 "></polyline>
<polyline clip-path="url(#clip602)" style="stroke:#000000; stroke-linecap:round; stroke-linejoin:round; stroke-width:2; stroke-opacity:0.1; fill:none" points="859.733,1423.18 859.733,123.472 "></polyline>
<polyline clip-path="url(#clip602)" style="stroke:#000000; stroke-linecap:round; stroke-linejoin:round; stroke-width:2; stroke-opacity:0.1; fill:none" points="930.829,1423.18 930.829,123.472 "></polyline>
<polyline clip-path="url(#clip602)" style="stroke:#000000; stroke-linecap:round; stroke-linejoin:round; stroke-width:2; stroke-opacity:0.1; fill:none" points="1001.93,1423.18 1001.93,123.472 "></polyline>
<polyline clip-path="url(#clip602)" style="stroke:#000000; stroke-linecap:round; stroke-linejoin:round; stroke-width:2; stroke-opacity:0.1; fill:none" points="1073.02,1423.18 1073.02,123.472 "></polyline>
<polyline clip-path="url(#clip602)" style="stroke:#000000; stroke-linecap:round; stroke-linejoin:round; stroke-width:2; stroke-opacity:0.1; fill:none" points="1144.12,1423.18 1144.12,123.472 "></polyline>
<polyline clip-path="url(#clip602)" style="stroke:#000000; stroke-linecap:round; stroke-linejoin:round; stroke-width:2; stroke-opacity:0.1; fill:none" points="1215.21,1423.18 1215.21,123.472 "></polyline>
<polyline clip-path="url(#clip602)" style="stroke:#000000; stroke-linecap:round; stroke-linejoin:round; stroke-width:2; stroke-opacity:0.1; fill:none" points="1286.31,1423.18 1286.31,123.472 "></polyline>
<polyline clip-path="url(#clip602)" style="stroke:#000000; stroke-linecap:round; stroke-linejoin:round; stroke-width:2; stroke-opacity:0.1; fill:none" points="1357.41,1423.18 1357.41,123.472 "></polyline>
<polyline clip-path="url(#clip602)" style="stroke:#000000; stroke-linecap:round; stroke-linejoin:round; stroke-width:2; stroke-opacity:0.1; fill:none" points="1428.5,1423.18 1428.5,123.472 "></polyline>
<polyline clip-path="url(#clip602)" style="stroke:#000000; stroke-linecap:round; stroke-linejoin:round; stroke-width:2; stroke-opacity:0.1; fill:none" points="1499.6,1423.18 1499.6,123.472 "></polyline>
<polyline clip-path="url(#clip602)" style="stroke:#000000; stroke-linecap:round; stroke-linejoin:round; stroke-width:2; stroke-opacity:0.1; fill:none" points="1570.7,1423.18 1570.7,123.472 "></polyline>
<polyline clip-path="url(#clip602)" style="stroke:#000000; stroke-linecap:round; stroke-linejoin:round; stroke-width:2; stroke-opacity:0.1; fill:none" points="1641.79,1423.18 1641.79,123.472 "></polyline>
<polyline clip-path="url(#clip602)" style="stroke:#000000; stroke-linecap:round; stroke-linejoin:round; stroke-width:2; stroke-opacity:0.1; fill:none" points="1712.89,1423.18 1712.89,123.472 "></polyline>
<polyline clip-path="url(#clip602)" style="stroke:#000000; stroke-linecap:round; stroke-linejoin:round; stroke-width:2; stroke-opacity:0.1; fill:none" points="1783.99,1423.18 1783.99,123.472 "></polyline>
<polyline clip-path="url(#clip602)" style="stroke:#000000; stroke-linecap:round; stroke-linejoin:round; stroke-width:2; stroke-opacity:0.1; fill:none" points="1855.08,1423.18 1855.08,123.472 "></polyline>
<polyline clip-path="url(#clip602)" style="stroke:#000000; stroke-linecap:round; stroke-linejoin:round; stroke-width:2; stroke-opacity:0.1; fill:none" points="1926.18,1423.18 1926.18,123.472 "></polyline>
<polyline clip-path="url(#clip602)" style="stroke:#000000; stroke-linecap:round; stroke-linejoin:round; stroke-width:2; stroke-opacity:0.1; fill:none" points="1997.27,1423.18 1997.27,123.472 "></polyline>
<polyline clip-path="url(#clip602)" style="stroke:#000000; stroke-linecap:round; stroke-linejoin:round; stroke-width:2; stroke-opacity:0.1; fill:none" points="2068.37,1423.18 2068.37,123.472 "></polyline>
<polyline clip-path="url(#clip602)" style="stroke:#000000; stroke-linecap:round; stroke-linejoin:round; stroke-width:2; stroke-opacity:0.1; fill:none" points="2139.47,1423.18 2139.47,123.472 "></polyline>
<polyline clip-path="url(#clip602)" style="stroke:#000000; stroke-linecap:round; stroke-linejoin:round; stroke-width:2; stroke-opacity:0.1; fill:none" points="2210.56,1423.18 2210.56,123.472 "></polyline>
<polyline clip-path="url(#clip602)" style="stroke:#000000; stroke-linecap:round; stroke-linejoin:round; stroke-width:2; stroke-opacity:0.1; fill:none" points="2281.66,1423.18 2281.66,123.472 "></polyline>
<polyline clip-path="url(#clip602)" style="stroke:#000000; stroke-linecap:round; stroke-linejoin:round; stroke-width:2; stroke-opacity:0.1; fill:none" points="2352.76,1423.18 2352.76,123.472 "></polyline>
<polyline clip-path="url(#clip600)" style="stroke:#000000; stroke-linecap:round; stroke-linejoin:round; stroke-width:4; stroke-opacity:1; fill:none" points="219.866,1423.18 2352.76,1423.18 "></polyline>
<polyline clip-path="url(#clip600)" style="stroke:#000000; stroke-linecap:round; stroke-linejoin:round; stroke-width:4; stroke-opacity:1; fill:none" points="290.963,1423.18 290.963,1404.28 "></polyline>
<polyline clip-path="url(#clip600)" style="stroke:#000000; stroke-linecap:round; stroke-linejoin:round; stroke-width:4; stroke-opacity:1; fill:none" points="362.059,1423.18 362.059,1404.28 "></polyline>
<polyline clip-path="url(#clip600)" style="stroke:#000000; stroke-linecap:round; stroke-linejoin:round; stroke-width:4; stroke-opacity:1; fill:none" points="433.155,1423.18 433.155,1404.28 "></polyline>
<polyline clip-path="url(#clip600)" style="stroke:#000000; stroke-linecap:round; stroke-linejoin:round; stroke-width:4; stroke-opacity:1; fill:none" points="504.252,1423.18 504.252,1404.28 "></polyline>
<polyline clip-path="url(#clip600)" style="stroke:#000000; stroke-linecap:round; stroke-linejoin:round; stroke-width:4; stroke-opacity:1; fill:none" points="575.348,1423.18 575.348,1404.28 "></polyline>
<polyline clip-path="url(#clip600)" style="stroke:#000000; stroke-linecap:round; stroke-linejoin:round; stroke-width:4; stroke-opacity:1; fill:none" points="646.444,1423.18 646.444,1404.28 "></polyline>
<polyline clip-path="url(#clip600)" style="stroke:#000000; stroke-linecap:round; stroke-linejoin:round; stroke-width:4; stroke-opacity:1; fill:none" points="717.541,1423.18 717.541,1404.28 "></polyline>
<polyline clip-path="url(#clip600)" style="stroke:#000000; stroke-linecap:round; stroke-linejoin:round; stroke-width:4; stroke-opacity:1; fill:none" points="788.637,1423.18 788.637,1404.28 "></polyline>
<polyline clip-path="url(#clip600)" style="stroke:#000000; stroke-linecap:round; stroke-linejoin:round; stroke-width:4; stroke-opacity:1; fill:none" points="859.733,1423.18 859.733,1404.28 "></polyline>
<polyline clip-path="url(#clip600)" style="stroke:#000000; stroke-linecap:round; stroke-linejoin:round; stroke-width:4; stroke-opacity:1; fill:none" points="930.829,1423.18 930.829,1404.28 "></polyline>
<polyline clip-path="url(#clip600)" style="stroke:#000000; stroke-linecap:round; stroke-linejoin:round; stroke-width:4; stroke-opacity:1; fill:none" points="1001.93,1423.18 1001.93,1404.28 "></polyline>
<polyline clip-path="url(#clip600)" style="stroke:#000000; stroke-linecap:round; stroke-linejoin:round; stroke-width:4; stroke-opacity:1; fill:none" points="1073.02,1423.18 1073.02,1404.28 "></polyline>
<polyline clip-path="url(#clip600)" style="stroke:#000000; stroke-linecap:round; stroke-linejoin:round; stroke-width:4; stroke-opacity:1; fill:none" points="1144.12,1423.18 1144.12,1404.28 "></polyline>
<polyline clip-path="url(#clip600)" style="stroke:#000000; stroke-linecap:round; stroke-linejoin:round; stroke-width:4; stroke-opacity:1; fill:none" points="1215.21,1423.18 1215.21,1404.28 "></polyline>
<polyline clip-path="url(#clip600)" style="stroke:#000000; stroke-linecap:round; stroke-linejoin:round; stroke-width:4; stroke-opacity:1; fill:none" points="1286.31,1423.18 1286.31,1404.28 "></polyline>
<polyline clip-path="url(#clip600)" style="stroke:#000000; stroke-linecap:round; stroke-linejoin:round; stroke-width:4; stroke-opacity:1; fill:none" points="1357.41,1423.18 1357.41,1404.28 "></polyline>
<polyline clip-path="url(#clip600)" style="stroke:#000000; stroke-linecap:round; stroke-linejoin:round; stroke-width:4; stroke-opacity:1; fill:none" points="1428.5,1423.18 1428.5,1404.28 "></polyline>
<polyline clip-path="url(#clip600)" style="stroke:#000000; stroke-linecap:round; stroke-linejoin:round; stroke-width:4; stroke-opacity:1; fill:none" points="1499.6,1423.18 1499.6,1404.28 "></polyline>
<polyline clip-path="url(#clip600)" style="stroke:#000000; stroke-linecap:round; stroke-linejoin:round; stroke-width:4; stroke-opacity:1; fill:none" points="1570.7,1423.18 1570.7,1404.28 "></polyline>
<polyline clip-path="url(#clip600)" style="stroke:#000000; stroke-linecap:round; stroke-linejoin:round; stroke-width:4; stroke-opacity:1; fill:none" points="1641.79,1423.18 1641.79,1404.28 "></polyline>
<polyline clip-path="url(#clip600)" style="stroke:#000000; stroke-linecap:round; stroke-linejoin:round; stroke-width:4; stroke-opacity:1; fill:none" points="1712.89,1423.18 1712.89,1404.28 "></polyline>
<polyline clip-path="url(#clip600)" style="stroke:#000000; stroke-linecap:round; stroke-linejoin:round; stroke-width:4; stroke-opacity:1; fill:none" points="1783.99,1423.18 1783.99,1404.28 "></polyline>
<polyline clip-path="url(#clip600)" style="stroke:#000000; stroke-linecap:round; stroke-linejoin:round; stroke-width:4; stroke-opacity:1; fill:none" points="1855.08,1423.18 1855.08,1404.28 "></polyline>
<polyline clip-path="url(#clip600)" style="stroke:#000000; stroke-linecap:round; stroke-linejoin:round; stroke-width:4; stroke-opacity:1; fill:none" points="1926.18,1423.18 1926.18,1404.28 "></polyline>
<polyline clip-path="url(#clip600)" style="stroke:#000000; stroke-linecap:round; stroke-linejoin:round; stroke-width:4; stroke-opacity:1; fill:none" points="1997.27,1423.18 1997.27,1404.28 "></polyline>
<polyline clip-path="url(#clip600)" style="stroke:#000000; stroke-linecap:round; stroke-linejoin:round; stroke-width:4; stroke-opacity:1; fill:none" points="2068.37,1423.18 2068.37,1404.28 "></polyline>
<polyline clip-path="url(#clip600)" style="stroke:#000000; stroke-linecap:round; stroke-linejoin:round; stroke-width:4; stroke-opacity:1; fill:none" points="2139.47,1423.18 2139.47,1404.28 "></polyline>
<polyline clip-path="url(#clip600)" style="stroke:#000000; stroke-linecap:round; stroke-linejoin:round; stroke-width:4; stroke-opacity:1; fill:none" points="2210.56,1423.18 2210.56,1404.28 "></polyline>
<polyline clip-path="url(#clip600)" style="stroke:#000000; stroke-linecap:round; stroke-linejoin:round; stroke-width:4; stroke-opacity:1; fill:none" points="2281.66,1423.18 2281.66,1404.28 "></polyline>
<polyline clip-path="url(#clip600)" style="stroke:#000000; stroke-linecap:round; stroke-linejoin:round; stroke-width:4; stroke-opacity:1; fill:none" points="2352.76,1423.18 2352.76,1404.28 "></polyline>
<path clip-path="url(#clip600)" d="M553.23 1454.1 Q549.619 1454.1 547.79 1457.66 Q545.985 1461.2 545.985 1468.33 Q545.985 1475.44 547.79 1479.01 Q549.619 1482.55 553.23 1482.55 Q556.864 1482.55 558.67 1479.01 Q560.498 1475.44 560.498 1468.33 Q560.498 1461.2 558.67 1457.66 Q556.864 1454.1 553.23 1454.1 M553.23 1450.39 Q559.04 1450.39 562.096 1455 Q565.174 1459.58 565.174 1468.33 Q565.174 1477.06 562.096 1481.67 Q559.04 1486.25 553.23 1486.25 Q547.42 1486.25 544.341 1481.67 Q541.286 1477.06 541.286 1468.33 Q541.286 1459.58 544.341 1455 Q547.42 1450.39 553.23 1450.39 Z" fill="#000000" fill-rule="nonzero" fill-opacity="1"></path><path clip-path="url(#clip600)" d="M573.392 1479.7 L578.276 1479.7 L578.276 1485.58 L573.392 1485.58 L573.392 1479.7 Z" fill="#000000" fill-rule="nonzero" fill-opacity="1"></path><path clip-path="url(#clip600)" d="M588.508 1451.02 L606.864 1451.02 L606.864 1454.96 L592.79 1454.96 L592.79 1463.43 Q593.808 1463.08 594.827 1462.92 Q595.845 1462.73 596.864 1462.73 Q602.651 1462.73 606.031 1465.9 Q609.41 1469.08 609.41 1474.49 Q609.41 1480.07 605.938 1483.17 Q602.466 1486.25 596.146 1486.25 Q593.97 1486.25 591.702 1485.88 Q589.457 1485.51 587.049 1484.77 L587.049 1480.07 Q589.133 1481.2 591.355 1481.76 Q593.577 1482.32 596.054 1482.32 Q600.058 1482.32 602.396 1480.21 Q604.734 1478.1 604.734 1474.49 Q604.734 1470.88 602.396 1468.77 Q600.058 1466.67 596.054 1466.67 Q594.179 1466.67 592.304 1467.08 Q590.452 1467.5 588.508 1468.38 L588.508 1451.02 Z" fill="#000000" fill-rule="nonzero" fill-opacity="1"></path><path clip-path="url(#clip600)" d="M897.982 1481.64 L905.621 1481.64 L905.621 1455.28 L897.311 1456.95 L897.311 1452.69 L905.575 1451.02 L910.251 1451.02 L910.251 1481.64 L917.89 1481.64 L917.89 1485.58 L897.982 1485.58 L897.982 1481.64 Z" fill="#000000" fill-rule="nonzero" fill-opacity="1"></path><path clip-path="url(#clip600)" d="M927.334 1479.7 L932.218 1479.7 L932.218 1485.58 L927.334 1485.58 L927.334 1479.7 Z" fill="#000000" fill-rule="nonzero" fill-opacity="1"></path><path clip-path="url(#clip600)" d="M952.403 1454.1 Q948.792 1454.1 946.964 1457.66 Q945.158 1461.2 945.158 1468.33 Q945.158 1475.44 946.964 1479.01 Q948.792 1482.55 952.403 1482.55 Q956.038 1482.55 957.843 1479.01 Q959.672 1475.44 959.672 1468.33 Q959.672 1461.2 957.843 1457.66 Q956.038 1454.1 952.403 1454.1 M952.403 1450.39 Q958.214 1450.39 961.269 1455 Q964.348 1459.58 964.348 1468.33 Q964.348 1477.06 961.269 1481.67 Q958.214 1486.25 952.403 1486.25 Q946.593 1486.25 943.515 1481.67 Q940.459 1477.06 940.459 1468.33 Q940.459 1459.58 943.515 1455 Q946.593 1450.39 952.403 1450.39 Z" fill="#000000" fill-rule="nonzero" fill-opacity="1"></path><path clip-path="url(#clip600)" d="M1253.96 1481.64 L1261.6 1481.64 L1261.6 1455.28 L1253.29 1456.95 L1253.29 1452.69 L1261.55 1451.02 L1266.23 1451.02 L1266.23 1481.64 L1273.87 1481.64 L1273.87 1485.58 L1253.96 1485.58 L1253.96 1481.64 Z" fill="#000000" fill-rule="nonzero" fill-opacity="1"></path><path clip-path="url(#clip600)" d="M1283.31 1479.7 L1288.2 1479.7 L1288.2 1485.58 L1283.31 1485.58 L1283.31 1479.7 Z" fill="#000000" fill-rule="nonzero" fill-opacity="1"></path><path clip-path="url(#clip600)" d="M1298.43 1451.02 L1316.79 1451.02 L1316.79 1454.96 L1302.71 1454.96 L1302.71 1463.43 Q1303.73 1463.08 1304.75 1462.92 Q1305.77 1462.73 1306.79 1462.73 Q1312.57 1462.73 1315.95 1465.9 Q1319.33 1469.08 1319.33 1474.49 Q1319.33 1480.07 1315.86 1483.17 Q1312.39 1486.25 1306.07 1486.25 Q1303.89 1486.25 1301.62 1485.88 Q1299.38 1485.51 1296.97 1484.77 L1296.97 1480.07 Q1299.05 1481.2 1301.28 1481.76 Q1303.5 1482.32 1305.98 1482.32 Q1309.98 1482.32 1312.32 1480.21 Q1314.66 1478.1 1314.66 1474.49 Q1314.66 1470.88 1312.32 1468.77 Q1309.98 1466.67 1305.98 1466.67 Q1304.1 1466.67 1302.23 1467.08 Q1300.37 1467.5 1298.43 1468.38 L1298.43 1451.02 Z" fill="#000000" fill-rule="nonzero" fill-opacity="1"></path><path clip-path="url(#clip600)" d="M1613.03 1481.64 L1629.35 1481.64 L1629.35 1485.58 L1607.41 1485.58 L1607.41 1481.64 Q1610.07 1478.89 1614.65 1474.26 Q1619.26 1469.61 1620.44 1468.27 Q1622.68 1465.74 1623.56 1464.01 Q1624.47 1462.25 1624.47 1460.56 Q1624.47 1457.8 1622.52 1456.07 Q1620.6 1454.33 1617.5 1454.33 Q1615.3 1454.33 1612.85 1455.09 Q1610.42 1455.86 1607.64 1457.41 L1607.64 1452.69 Q1610.46 1451.55 1612.92 1450.97 Q1615.37 1450.39 1617.41 1450.39 Q1622.78 1450.39 1625.97 1453.08 Q1629.17 1455.77 1629.17 1460.26 Q1629.17 1462.39 1628.36 1464.31 Q1627.57 1466.2 1625.46 1468.8 Q1624.88 1469.47 1621.78 1472.69 Q1618.68 1475.88 1613.03 1481.64 Z" fill="#000000" fill-rule="nonzero" fill-opacity="1"></path><path clip-path="url(#clip600)" d="M1639.17 1479.7 L1644.05 1479.7 L1644.05 1485.58 L1639.17 1485.58 L1639.17 1479.7 Z" fill="#000000" fill-rule="nonzero" fill-opacity="1"></path><path clip-path="url(#clip600)" d="M1664.23 1454.1 Q1660.62 1454.1 1658.79 1457.66 Q1656.99 1461.2 1656.99 1468.33 Q1656.99 1475.44 1658.79 1479.01 Q1660.62 1482.55 1664.23 1482.55 Q1667.87 1482.55 1669.67 1479.01 Q1671.5 1475.44 1671.5 1468.33 Q1671.5 1461.2 1669.67 1457.66 Q1667.87 1454.1 1664.23 1454.1 M1664.23 1450.39 Q1670.04 1450.39 1673.1 1455 Q1676.18 1459.58 1676.18 1468.33 Q1676.18 1477.06 1673.1 1481.67 Q1670.04 1486.25 1664.23 1486.25 Q1658.42 1486.25 1655.35 1481.67 Q1652.29 1477.06 1652.29 1468.33 Q1652.29 1459.58 1655.35 1455 Q1658.42 1450.39 1664.23 1450.39 Z" fill="#000000" fill-rule="nonzero" fill-opacity="1"></path><path clip-path="url(#clip600)" d="M1969.01 1481.64 L1985.33 1481.64 L1985.33 1485.58 L1963.39 1485.58 L1963.39 1481.64 Q1966.05 1478.89 1970.63 1474.26 Q1975.24 1469.61 1976.42 1468.27 Q1978.66 1465.74 1979.54 1464.01 Q1980.45 1462.25 1980.45 1460.56 Q1980.45 1457.8 1978.5 1456.07 Q1976.58 1454.33 1973.48 1454.33 Q1971.28 1454.33 1968.83 1455.09 Q1966.39 1455.86 1963.62 1457.41 L1963.62 1452.69 Q1966.44 1451.55 1968.89 1450.97 Q1971.35 1450.39 1973.39 1450.39 Q1978.76 1450.39 1981.95 1453.08 Q1985.14 1455.77 1985.14 1460.26 Q1985.14 1462.39 1984.33 1464.31 Q1983.55 1466.2 1981.44 1468.8 Q1980.86 1469.47 1977.76 1472.69 Q1974.66 1475.88 1969.01 1481.64 Z" fill="#000000" fill-rule="nonzero" fill-opacity="1"></path><path clip-path="url(#clip600)" d="M1995.14 1479.7 L2000.03 1479.7 L2000.03 1485.58 L1995.14 1485.58 L1995.14 1479.7 Z" fill="#000000" fill-rule="nonzero" fill-opacity="1"></path><path clip-path="url(#clip600)" d="M2010.26 1451.02 L2028.62 1451.02 L2028.62 1454.96 L2014.54 1454.96 L2014.54 1463.43 Q2015.56 1463.08 2016.58 1462.92 Q2017.6 1462.73 2018.62 1462.73 Q2024.4 1462.73 2027.78 1465.9 Q2031.16 1469.08 2031.16 1474.49 Q2031.16 1480.07 2027.69 1483.17 Q2024.22 1486.25 2017.9 1486.25 Q2015.72 1486.25 2013.45 1485.88 Q2011.21 1485.51 2008.8 1484.77 L2008.8 1480.07 Q2010.89 1481.2 2013.11 1481.76 Q2015.33 1482.32 2017.81 1482.32 Q2021.81 1482.32 2024.15 1480.21 Q2026.49 1478.1 2026.49 1474.49 Q2026.49 1470.88 2024.15 1468.77 Q2021.81 1466.67 2017.81 1466.67 Q2015.93 1466.67 2014.06 1467.08 Q2012.2 1467.5 2010.26 1468.38 L2010.26 1451.02 Z" fill="#000000" fill-rule="nonzero" fill-opacity="1"></path><path clip-path="url(#clip600)" d="M2334.06 1466.95 Q2337.42 1467.66 2339.3 1469.93 Q2341.19 1472.2 2341.19 1475.53 Q2341.19 1480.65 2337.67 1483.45 Q2334.16 1486.25 2327.68 1486.25 Q2325.5 1486.25 2323.18 1485.81 Q2320.89 1485.39 2318.44 1484.54 L2318.44 1480.02 Q2320.38 1481.16 2322.7 1481.74 Q2325.01 1482.32 2327.54 1482.32 Q2331.93 1482.32 2334.23 1480.58 Q2336.54 1478.84 2336.54 1475.53 Q2336.54 1472.48 2334.39 1470.77 Q2332.26 1469.03 2328.44 1469.03 L2324.41 1469.03 L2324.41 1465.19 L2328.62 1465.19 Q2332.07 1465.19 2333.9 1463.82 Q2335.73 1462.43 2335.73 1459.84 Q2335.73 1457.18 2333.83 1455.77 Q2331.96 1454.33 2328.44 1454.33 Q2326.52 1454.33 2324.32 1454.75 Q2322.12 1455.16 2319.48 1456.04 L2319.48 1451.88 Q2322.14 1451.14 2324.46 1450.77 Q2326.8 1450.39 2328.86 1450.39 Q2334.18 1450.39 2337.28 1452.83 Q2340.38 1455.23 2340.38 1459.35 Q2340.38 1462.22 2338.74 1464.21 Q2337.1 1466.18 2334.06 1466.95 Z" fill="#000000" fill-rule="nonzero" fill-opacity="1"></path><path clip-path="url(#clip600)" d="M2350.06 1479.7 L2354.94 1479.7 L2354.94 1485.58 L2350.06 1485.58 L2350.06 1479.7 Z" fill="#000000" fill-rule="nonzero" fill-opacity="1"></path><path clip-path="url(#clip600)" d="M2375.13 1454.1 Q2371.52 1454.1 2369.69 1457.66 Q2367.88 1461.2 2367.88 1468.33 Q2367.88 1475.44 2369.69 1479.01 Q2371.52 1482.55 2375.13 1482.55 Q2378.76 1482.55 2380.57 1479.01 Q2382.4 1475.44 2382.4 1468.33 Q2382.4 1461.2 2380.57 1457.66 Q2378.76 1454.1 2375.13 1454.1 M2375.13 1450.39 Q2380.94 1450.39 2383.99 1455 Q2387.07 1459.58 2387.07 1468.33 Q2387.07 1477.06 2383.99 1481.67 Q2380.94 1486.25 2375.13 1486.25 Q2369.32 1486.25 2366.24 1481.67 Q2363.18 1477.06 2363.18 1468.33 Q2363.18 1459.58 2366.24 1455 Q2369.32 1450.39 2375.13 1450.39 Z" fill="#000000" fill-rule="nonzero" fill-opacity="1"></path><path clip-path="url(#clip600)" d="M1273.23 1538.76 Q1275.17 1535.52 1279.98 1532.65 Q1281.86 1531.54 1287.65 1531.54 Q1294.14 1531.54 1298.18 1536.69 Q1302.26 1541.85 1302.26 1550.25 Q1302.26 1558.65 1298.18 1563.81 Q1294.14 1568.97 1287.65 1568.97 Q1283.73 1568.97 1280.9 1567.44 Q1278.1 1565.88 1276.25 1562.7 L1276.25 1581.6 L1270.36 1581.6 L1270.36 1550.57 Q1270.36 1543.22 1273.23 1538.76 M1296.18 1550.25 Q1296.18 1543.79 1293.5 1540.13 Q1290.86 1536.44 1286.22 1536.44 Q1281.57 1536.44 1278.9 1540.13 Q1276.25 1543.79 1276.25 1550.25 Q1276.25 1556.71 1278.9 1560.4 Q1281.57 1564.07 1286.22 1564.07 Q1290.86 1564.07 1293.5 1560.4 Q1296.18 1556.71 1296.18 1550.25 Z" fill="#000000" fill-rule="nonzero" fill-opacity="1"></path><polyline clip-path="url(#clip602)" style="stroke:#000000; stroke-linecap:round; stroke-linejoin:round; stroke-width:2; stroke-opacity:0.1; fill:none" points="219.866,1358.19 2352.76,1358.19 "></polyline>
<polyline clip-path="url(#clip602)" style="stroke:#000000; stroke-linecap:round; stroke-linejoin:round; stroke-width:2; stroke-opacity:0.1; fill:none" points="219.866,1293.21 2352.76,1293.21 "></polyline>
<polyline clip-path="url(#clip602)" style="stroke:#000000; stroke-linecap:round; stroke-linejoin:round; stroke-width:2; stroke-opacity:0.1; fill:none" points="219.866,1228.22 2352.76,1228.22 "></polyline>
<polyline clip-path="url(#clip602)" style="stroke:#000000; stroke-linecap:round; stroke-linejoin:round; stroke-width:2; stroke-opacity:0.1; fill:none" points="219.866,1163.24 2352.76,1163.24 "></polyline>
<polyline clip-path="url(#clip602)" style="stroke:#000000; stroke-linecap:round; stroke-linejoin:round; stroke-width:2; stroke-opacity:0.1; fill:none" points="219.866,1098.25 2352.76,1098.25 "></polyline>
<polyline clip-path="url(#clip602)" style="stroke:#000000; stroke-linecap:round; stroke-linejoin:round; stroke-width:2; stroke-opacity:0.1; fill:none" points="219.866,1033.27 2352.76,1033.27 "></polyline>
<polyline clip-path="url(#clip602)" style="stroke:#000000; stroke-linecap:round; stroke-linejoin:round; stroke-width:2; stroke-opacity:0.1; fill:none" points="219.866,968.282 2352.76,968.282 "></polyline>
<polyline clip-path="url(#clip602)" style="stroke:#000000; stroke-linecap:round; stroke-linejoin:round; stroke-width:2; stroke-opacity:0.1; fill:none" points="219.866,903.297 2352.76,903.297 "></polyline>
<polyline clip-path="url(#clip602)" style="stroke:#000000; stroke-linecap:round; stroke-linejoin:round; stroke-width:2; stroke-opacity:0.1; fill:none" points="219.866,838.311 2352.76,838.311 "></polyline>
<polyline clip-path="url(#clip602)" style="stroke:#000000; stroke-linecap:round; stroke-linejoin:round; stroke-width:2; stroke-opacity:0.1; fill:none" points="219.866,773.326 2352.76,773.326 "></polyline>
<polyline clip-path="url(#clip602)" style="stroke:#000000; stroke-linecap:round; stroke-linejoin:round; stroke-width:2; stroke-opacity:0.1; fill:none" points="219.866,708.341 2352.76,708.341 "></polyline>
<polyline clip-path="url(#clip602)" style="stroke:#000000; stroke-linecap:round; stroke-linejoin:round; stroke-width:2; stroke-opacity:0.1; fill:none" points="219.866,643.355 2352.76,643.355 "></polyline>
<polyline clip-path="url(#clip602)" style="stroke:#000000; stroke-linecap:round; stroke-linejoin:round; stroke-width:2; stroke-opacity:0.1; fill:none" points="219.866,578.37 2352.76,578.37 "></polyline>
<polyline clip-path="url(#clip602)" style="stroke:#000000; stroke-linecap:round; stroke-linejoin:round; stroke-width:2; stroke-opacity:0.1; fill:none" points="219.866,513.384 2352.76,513.384 "></polyline>
<polyline clip-path="url(#clip602)" style="stroke:#000000; stroke-linecap:round; stroke-linejoin:round; stroke-width:2; stroke-opacity:0.1; fill:none" points="219.866,448.399 2352.76,448.399 "></polyline>
<polyline clip-path="url(#clip602)" style="stroke:#000000; stroke-linecap:round; stroke-linejoin:round; stroke-width:2; stroke-opacity:0.1; fill:none" points="219.866,383.414 2352.76,383.414 "></polyline>
<polyline clip-path="url(#clip602)" style="stroke:#000000; stroke-linecap:round; stroke-linejoin:round; stroke-width:2; stroke-opacity:0.1; fill:none" points="219.866,318.428 2352.76,318.428 "></polyline>
<polyline clip-path="url(#clip602)" style="stroke:#000000; stroke-linecap:round; stroke-linejoin:round; stroke-width:2; stroke-opacity:0.1; fill:none" points="219.866,253.443 2352.76,253.443 "></polyline>
<polyline clip-path="url(#clip602)" style="stroke:#000000; stroke-linecap:round; stroke-linejoin:round; stroke-width:2; stroke-opacity:0.1; fill:none" points="219.866,188.458 2352.76,188.458 "></polyline>
<polyline clip-path="url(#clip602)" style="stroke:#000000; stroke-linecap:round; stroke-linejoin:round; stroke-width:2; stroke-opacity:0.1; fill:none" points="219.866,123.472 2352.76,123.472 "></polyline>
<polyline clip-path="url(#clip600)" style="stroke:#000000; stroke-linecap:round; stroke-linejoin:round; stroke-width:4; stroke-opacity:1; fill:none" points="219.866,1423.18 219.866,123.472 "></polyline>
<polyline clip-path="url(#clip600)" style="stroke:#000000; stroke-linecap:round; stroke-linejoin:round; stroke-width:4; stroke-opacity:1; fill:none" points="219.866,1358.19 238.764,1358.19 "></polyline>
<polyline clip-path="url(#clip600)" style="stroke:#000000; stroke-linecap:round; stroke-linejoin:round; stroke-width:4; stroke-opacity:1; fill:none" points="219.866,1293.21 238.764,1293.21 "></polyline>
<polyline clip-path="url(#clip600)" style="stroke:#000000; stroke-linecap:round; stroke-linejoin:round; stroke-width:4; stroke-opacity:1; fill:none" points="219.866,1228.22 238.764,1228.22 "></polyline>
<polyline clip-path="url(#clip600)" style="stroke:#000000; stroke-linecap:round; stroke-linejoin:round; stroke-width:4; stroke-opacity:1; fill:none" points="219.866,1163.24 238.764,1163.24 "></polyline>
<polyline clip-path="url(#clip600)" style="stroke:#000000; stroke-linecap:round; stroke-linejoin:round; stroke-width:4; stroke-opacity:1; fill:none" points="219.866,1098.25 238.764,1098.25 "></polyline>
<polyline clip-path="url(#clip600)" style="stroke:#000000; stroke-linecap:round; stroke-linejoin:round; stroke-width:4; stroke-opacity:1; fill:none" points="219.866,1033.27 238.764,1033.27 "></polyline>
<polyline clip-path="url(#clip600)" style="stroke:#000000; stroke-linecap:round; stroke-linejoin:round; stroke-width:4; stroke-opacity:1; fill:none" points="219.866,968.282 238.764,968.282 "></polyline>
<polyline clip-path="url(#clip600)" style="stroke:#000000; stroke-linecap:round; stroke-linejoin:round; stroke-width:4; stroke-opacity:1; fill:none" points="219.866,903.297 238.764,903.297 "></polyline>
<polyline clip-path="url(#clip600)" style="stroke:#000000; stroke-linecap:round; stroke-linejoin:round; stroke-width:4; stroke-opacity:1; fill:none" points="219.866,838.311 238.764,838.311 "></polyline>
<polyline clip-path="url(#clip600)" style="stroke:#000000; stroke-linecap:round; stroke-linejoin:round; stroke-width:4; stroke-opacity:1; fill:none" points="219.866,773.326 238.764,773.326 "></polyline>
<polyline clip-path="url(#clip600)" style="stroke:#000000; stroke-linecap:round; stroke-linejoin:round; stroke-width:4; stroke-opacity:1; fill:none" points="219.866,708.341 238.764,708.341 "></polyline>
<polyline clip-path="url(#clip600)" style="stroke:#000000; stroke-linecap:round; stroke-linejoin:round; stroke-width:4; stroke-opacity:1; fill:none" points="219.866,643.355 238.764,643.355 "></polyline>
<polyline clip-path="url(#clip600)" style="stroke:#000000; stroke-linecap:round; stroke-linejoin:round; stroke-width:4; stroke-opacity:1; fill:none" points="219.866,578.37 238.764,578.37 "></polyline>
<polyline clip-path="url(#clip600)" style="stroke:#000000; stroke-linecap:round; stroke-linejoin:round; stroke-width:4; stroke-opacity:1; fill:none" points="219.866,513.384 238.764,513.384 "></polyline>
<polyline clip-path="url(#clip600)" style="stroke:#000000; stroke-linecap:round; stroke-linejoin:round; stroke-width:4; stroke-opacity:1; fill:none" points="219.866,448.399 238.764,448.399 "></polyline>
<polyline clip-path="url(#clip600)" style="stroke:#000000; stroke-linecap:round; stroke-linejoin:round; stroke-width:4; stroke-opacity:1; fill:none" points="219.866,383.414 238.764,383.414 "></polyline>
<polyline clip-path="url(#clip600)" style="stroke:#000000; stroke-linecap:round; stroke-linejoin:round; stroke-width:4; stroke-opacity:1; fill:none" points="219.866,318.428 238.764,318.428 "></polyline>
<polyline clip-path="url(#clip600)" style="stroke:#000000; stroke-linecap:round; stroke-linejoin:round; stroke-width:4; stroke-opacity:1; fill:none" points="219.866,253.443 238.764,253.443 "></polyline>
<polyline clip-path="url(#clip600)" style="stroke:#000000; stroke-linecap:round; stroke-linejoin:round; stroke-width:4; stroke-opacity:1; fill:none" points="219.866,188.458 238.764,188.458 "></polyline>
<polyline clip-path="url(#clip600)" style="stroke:#000000; stroke-linecap:round; stroke-linejoin:round; stroke-width:4; stroke-opacity:1; fill:none" points="219.866,123.472 238.764,123.472 "></polyline>
<path clip-path="url(#clip600)" d="M128.288 1149.04 Q124.677 1149.04 122.848 1152.6 Q121.043 1156.14 121.043 1163.27 Q121.043 1170.38 122.848 1173.94 Q124.677 1177.49 128.288 1177.49 Q131.922 1177.49 133.728 1173.94 Q135.556 1170.38 135.556 1163.27 Q135.556 1156.14 133.728 1152.6 Q131.922 1149.04 128.288 1149.04 M128.288 1145.33 Q134.098 1145.33 137.154 1149.94 Q140.232 1154.52 140.232 1163.27 Q140.232 1172 137.154 1176.61 Q134.098 1181.19 128.288 1181.19 Q122.478 1181.19 119.399 1176.61 Q116.343 1172 116.343 1163.27 Q116.343 1154.52 119.399 1149.94 Q122.478 1145.33 128.288 1145.33 Z" fill="#000000" fill-rule="nonzero" fill-opacity="1"></path><path clip-path="url(#clip600)" d="M148.45 1174.64 L153.334 1174.64 L153.334 1180.52 L148.45 1180.52 L148.45 1174.64 Z" fill="#000000" fill-rule="nonzero" fill-opacity="1"></path><path clip-path="url(#clip600)" d="M167.547 1176.58 L183.866 1176.58 L183.866 1180.52 L161.922 1180.52 L161.922 1176.58 Q164.584 1173.83 169.167 1169.2 Q173.774 1164.55 174.954 1163.2 Q177.2 1160.68 178.079 1158.94 Q178.982 1157.19 178.982 1155.5 Q178.982 1152.74 177.038 1151 Q175.116 1149.27 172.014 1149.27 Q169.815 1149.27 167.362 1150.03 Q164.931 1150.8 162.153 1152.35 L162.153 1147.62 Q164.977 1146.49 167.431 1145.91 Q169.885 1145.33 171.922 1145.33 Q177.292 1145.33 180.487 1148.02 Q183.681 1150.7 183.681 1155.19 Q183.681 1157.32 182.871 1159.25 Q182.084 1161.14 179.977 1163.74 Q179.399 1164.41 176.297 1167.62 Q173.195 1170.82 167.547 1176.58 Z" fill="#000000" fill-rule="nonzero" fill-opacity="1"></path><path clip-path="url(#clip600)" d="M126.205 889.095 Q122.593 889.095 120.765 892.66 Q118.959 896.202 118.959 903.331 Q118.959 910.438 120.765 914.003 Q122.593 917.544 126.205 917.544 Q129.839 917.544 131.644 914.003 Q133.473 910.438 133.473 903.331 Q133.473 896.202 131.644 892.66 Q129.839 889.095 126.205 889.095 M126.205 885.392 Q132.015 885.392 135.07 889.998 Q138.149 894.582 138.149 903.331 Q138.149 912.058 135.07 916.665 Q132.015 921.248 126.205 921.248 Q120.394 921.248 117.316 916.665 Q114.26 912.058 114.26 903.331 Q114.26 894.582 117.316 889.998 Q120.394 885.392 126.205 885.392 Z" fill="#000000" fill-rule="nonzero" fill-opacity="1"></path><path clip-path="url(#clip600)" d="M146.366 914.697 L151.251 914.697 L151.251 920.577 L146.366 920.577 L146.366 914.697 Z" fill="#000000" fill-rule="nonzero" fill-opacity="1"></path><path clip-path="url(#clip600)" d="M174.283 890.091 L162.477 908.54 L174.283 908.54 L174.283 890.091 M173.056 886.017 L178.936 886.017 L178.936 908.54 L183.866 908.54 L183.866 912.429 L178.936 912.429 L178.936 920.577 L174.283 920.577 L174.283 912.429 L158.681 912.429 L158.681 907.915 L173.056 886.017 Z" fill="#000000" fill-rule="nonzero" fill-opacity="1"></path><path clip-path="url(#clip600)" d="M126.529 629.154 Q122.918 629.154 121.089 632.719 Q119.283 636.26 119.283 643.39 Q119.283 650.496 121.089 654.061 Q122.918 657.603 126.529 657.603 Q130.163 657.603 131.968 654.061 Q133.797 650.496 133.797 643.39 Q133.797 636.26 131.968 632.719 Q130.163 629.154 126.529 629.154 M126.529 625.45 Q132.339 625.45 135.394 630.057 Q138.473 634.64 138.473 643.39 Q138.473 652.117 135.394 656.723 Q132.339 661.307 126.529 661.307 Q120.718 661.307 117.64 656.723 Q114.584 652.117 114.584 643.39 Q114.584 634.64 117.64 630.057 Q120.718 625.45 126.529 625.45 Z" fill="#000000" fill-rule="nonzero" fill-opacity="1"></path><path clip-path="url(#clip600)" d="M146.691 654.756 L151.575 654.756 L151.575 660.635 L146.691 660.635 L146.691 654.756 Z" fill="#000000" fill-rule="nonzero" fill-opacity="1"></path><path clip-path="url(#clip600)" d="M172.339 641.492 Q169.19 641.492 167.339 643.645 Q165.51 645.797 165.51 649.547 Q165.51 653.274 167.339 655.45 Q169.19 657.603 172.339 657.603 Q175.487 657.603 177.315 655.45 Q179.167 653.274 179.167 649.547 Q179.167 645.797 177.315 643.645 Q175.487 641.492 172.339 641.492 M181.621 626.839 L181.621 631.098 Q179.862 630.265 178.056 629.825 Q176.274 629.385 174.514 629.385 Q169.885 629.385 167.431 632.51 Q165.001 635.635 164.653 641.955 Q166.019 639.941 168.079 638.876 Q170.139 637.788 172.616 637.788 Q177.825 637.788 180.834 640.959 Q183.866 644.108 183.866 649.547 Q183.866 654.871 180.718 658.089 Q177.57 661.307 172.339 661.307 Q166.343 661.307 163.172 656.723 Q160.001 652.117 160.001 643.39 Q160.001 635.196 163.89 630.334 Q167.778 625.45 174.329 625.45 Q176.089 625.45 177.871 625.797 Q179.676 626.145 181.621 626.839 Z" fill="#000000" fill-rule="nonzero" fill-opacity="1"></path><path clip-path="url(#clip600)" d="M126.783 369.212 Q123.172 369.212 121.343 372.777 Q119.538 376.319 119.538 383.448 Q119.538 390.555 121.343 394.12 Q123.172 397.661 126.783 397.661 Q130.417 397.661 132.223 394.12 Q134.052 390.555 134.052 383.448 Q134.052 376.319 132.223 372.777 Q130.417 369.212 126.783 369.212 M126.783 365.509 Q132.593 365.509 135.649 370.115 Q138.728 374.698 138.728 383.448 Q138.728 392.175 135.649 396.782 Q132.593 401.365 126.783 401.365 Q120.973 401.365 117.894 396.782 Q114.839 392.175 114.839 383.448 Q114.839 374.698 117.894 370.115 Q120.973 365.509 126.783 365.509 Z" fill="#000000" fill-rule="nonzero" fill-opacity="1"></path><path clip-path="url(#clip600)" d="M146.945 394.814 L151.829 394.814 L151.829 400.694 L146.945 400.694 L146.945 394.814 Z" fill="#000000" fill-rule="nonzero" fill-opacity="1"></path><path clip-path="url(#clip600)" d="M172.014 384.282 Q168.681 384.282 166.76 386.064 Q164.862 387.847 164.862 390.971 Q164.862 394.096 166.76 395.879 Q168.681 397.661 172.014 397.661 Q175.348 397.661 177.269 395.879 Q179.19 394.073 179.19 390.971 Q179.19 387.847 177.269 386.064 Q175.371 384.282 172.014 384.282 M167.339 382.291 Q164.329 381.55 162.64 379.49 Q160.973 377.43 160.973 374.467 Q160.973 370.323 163.913 367.916 Q166.876 365.509 172.014 365.509 Q177.176 365.509 180.116 367.916 Q183.056 370.323 183.056 374.467 Q183.056 377.43 181.366 379.49 Q179.7 381.55 176.714 382.291 Q180.093 383.078 181.968 385.37 Q183.866 387.661 183.866 390.971 Q183.866 395.995 180.788 398.68 Q177.732 401.365 172.014 401.365 Q166.297 401.365 163.218 398.68 Q160.163 395.995 160.163 390.971 Q160.163 387.661 162.061 385.37 Q163.959 383.078 167.339 382.291 M165.626 374.907 Q165.626 377.592 167.292 379.097 Q168.982 380.601 172.014 380.601 Q175.024 380.601 176.714 379.097 Q178.426 377.592 178.426 374.907 Q178.426 372.222 176.714 370.717 Q175.024 369.212 172.014 369.212 Q168.982 369.212 167.292 370.717 Q165.626 372.222 165.626 374.907 Z" fill="#000000" fill-rule="nonzero" fill-opacity="1"></path><path clip-path="url(#clip600)" d="M117.501 136.817 L125.14 136.817 L125.14 110.451 L116.83 112.118 L116.83 107.859 L125.093 106.192 L129.769 106.192 L129.769 136.817 L137.408 136.817 L137.408 140.752 L117.501 140.752 L117.501 136.817 Z" fill="#000000" fill-rule="nonzero" fill-opacity="1"></path><path clip-path="url(#clip600)" d="M146.853 134.873 L151.737 134.873 L151.737 140.752 L146.853 140.752 L146.853 134.873 Z" fill="#000000" fill-rule="nonzero" fill-opacity="1"></path><path clip-path="url(#clip600)" d="M171.922 109.271 Q168.311 109.271 166.482 112.836 Q164.677 116.377 164.677 123.507 Q164.677 130.613 166.482 134.178 Q168.311 137.72 171.922 137.72 Q175.556 137.72 177.362 134.178 Q179.19 130.613 179.19 123.507 Q179.19 116.377 177.362 112.836 Q175.556 109.271 171.922 109.271 M171.922 105.567 Q177.732 105.567 180.788 110.174 Q183.866 114.757 183.866 123.507 Q183.866 132.234 180.788 136.84 Q177.732 141.423 171.922 141.423 Q166.112 141.423 163.033 136.84 Q159.978 132.234 159.978 123.507 Q159.978 114.757 163.033 110.174 Q166.112 105.567 171.922 105.567 Z" fill="#000000" fill-rule="nonzero" fill-opacity="1"></path><path clip-path="url(#clip600)" d="M28.3562 800.778 L28.3562 794.731 L43.1565 794.731 L28.3562 779.357 L28.3562 772.228 L41.7878 786.264 L64.0042 770.032 L64.0042 777.193 L45.6073 790.37 L49.7131 794.731 L64.0042 794.731 L64.0042 800.778 L28.3562 800.778 Z" fill="#000000" fill-rule="nonzero" fill-opacity="1"></path><path clip-path="url(#clip600)" d="M60.503 763.475 L60.503 756.982 L41.0558 756.982 L42.3608 764.08 L38.6686 764.08 L37.4273 756.759 L37.4273 752.399 L60.503 752.399 L60.503 745.874 L64.0042 745.874 L64.0042 763.475 L60.503 763.475 Z" fill="#000000" fill-rule="nonzero" fill-opacity="1"></path><path clip-path="url(#clip600)" d="M1139.32 27.2059 L1147.02 27.2059 L1147.02 46.0426 L1166.59 27.2059 L1175.66 27.2059 L1157.8 44.3007 L1178.46 72.576 L1169.34 72.576 L1152.57 49.1618 L1147.02 54.3874 L1147.02 72.576 L1139.32 72.576 L1139.32 27.2059 Z" fill="#000000" fill-rule="nonzero" fill-opacity="1"></path><path clip-path="url(#clip600)" d="M1186.8 68.12 L1195.06 68.12 L1195.06 43.369 L1186.03 45.0299 L1186.03 40.3308 L1195.35 38.7509 L1200.9 38.7509 L1200.9 68.12 L1209.2 68.12 L1209.2 72.576 L1186.8 72.576 L1186.8 68.12 Z" fill="#000000" fill-rule="nonzero" fill-opacity="1"></path><path clip-path="url(#clip600)" d="M1242.58 27.2059 L1250.48 27.2059 L1264.66 65.2844 L1278.84 27.2059 L1286.74 27.2059 L1269.72 72.576 L1259.6 72.576 L1242.58 27.2059 Z" fill="#000000" fill-rule="nonzero" fill-opacity="1"></path><path clip-path="url(#clip600)" d="M1325.95 28.5427 L1325.95 35.5912 Q1322.79 33.9709 1319.39 33.1607 Q1315.98 32.3505 1312.34 32.3505 Q1306.79 32.3505 1303.99 34.0519 Q1301.24 35.7533 1301.24 39.156 Q1301.24 41.7486 1303.22 43.2475 Q1305.21 44.7058 1311.2 46.0426 L1313.76 46.6097 Q1321.7 48.3111 1325.02 51.4303 Q1328.38 54.509 1328.38 60.0587 Q1328.38 66.3781 1323.36 70.0644 Q1318.37 73.7508 1309.62 73.7508 Q1305.98 73.7508 1302.01 73.0216 Q1298.08 72.3329 1293.7 70.9151 L1293.7 63.2184 Q1297.84 65.3654 1301.85 66.4591 Q1305.86 67.5124 1309.79 67.5124 Q1315.05 67.5124 1317.89 65.73 Q1320.72 63.9071 1320.72 60.6258 Q1320.72 57.5877 1318.66 55.9673 Q1316.63 54.3469 1309.71 52.8481 L1307.11 52.2405 Q1300.19 50.7821 1297.11 47.7845 Q1294.03 44.7463 1294.03 39.4801 Q1294.03 33.0797 1298.57 29.5959 Q1303.1 26.1121 1311.45 26.1121 Q1315.58 26.1121 1319.22 26.7198 Q1322.87 27.3274 1325.95 28.5427 Z" fill="#000000" fill-rule="nonzero" fill-opacity="1"></path><path clip-path="url(#clip600)" d="M1341.3 62.2867 L1349.85 62.2867 L1349.85 72.576 L1341.3 72.576 L1341.3 62.2867 Z" fill="#000000" fill-rule="nonzero" fill-opacity="1"></path><path clip-path="url(#clip600)" d="M1396.35 35.3077 Q1398.82 31.1758 1404.94 27.5299 Q1407.33 26.1121 1414.7 26.1121 Q1422.97 26.1121 1428.11 32.6746 Q1433.3 39.2371 1433.3 49.9314 Q1433.3 60.6258 1428.11 67.1883 Q1422.97 73.7508 1414.7 73.7508 Q1409.72 73.7508 1406.12 71.8063 Q1402.55 69.8214 1400.2 65.7705 L1400.2 89.8329 L1392.71 89.8329 L1392.71 50.3365 Q1392.71 40.9789 1396.35 35.3077 M1425.56 49.9314 Q1425.56 41.7081 1422.16 37.0496 Q1418.8 32.3505 1412.88 32.3505 Q1406.97 32.3505 1403.56 37.0496 Q1400.2 41.7081 1400.2 49.9314 Q1400.2 58.1548 1403.56 62.8538 Q1406.97 67.5124 1412.88 67.5124 Q1418.8 67.5124 1422.16 62.8538 Q1425.56 58.1548 1425.56 49.9314 Z" fill="#000000" fill-rule="nonzero" fill-opacity="1"></path><polyline clip-path="url(#clip602)" style="stroke:#009af9; stroke-linecap:round; stroke-linejoin:round; stroke-width:4; stroke-opacity:1; fill:none" points="255.414,1430.1 290.963,1409.3 326.511,1400.53 362.059,1381.65 397.607,1358.98 433.155,1342.05 468.703,1298.07 504.252,1265.19 539.8,1230.14 575.348,1229.14 610.896,1167.94 646.444,1111.16 681.992,1095.66 717.541,1048.33 753.089,1012.11 788.637,1034.98 824.185,953.695 859.733,942.479 895.281,877.688 930.829,880.158 966.378,807.266 1001.93,797.577 1037.47,728.561 1073.02,769.42 1108.57,736.254 1144.12,713.927 1179.67,657.835 1215.21,586.374 1250.76,620.37 1286.31,548.671 1321.86,542.912 1357.41,521.75 1392.96,560.761 1428.5,531.735 1464.05,513.042 1499.6,532.585 1535.15,426.087 1570.7,460.526 1606.24,487.097 1641.79,402.79 1677.34,490.895 1712.89,412.554 1748.44,415.734 1783.99,327.092 1819.53,340.765 1855.08,521.616 1890.63,261.086 1926.18,332.817 1961.73,245.669 1997.27,442.977 2032.82,238.694 2068.37,468.121 2103.92,375.563 2139.47,186.197 2175.02,377.138 2210.56,92.9643 2246.11,196.097 2281.66,184.397 2317.21,136.102 2352.76,379.874 "></polyline>
</svg>